<svg width="18" height="19" viewBox="0 0 18 19" fill="none" xmlns="http://www.w3.org/2000/svg">
<path d="M8.37751 17.8052L0.502515 10.0402C0.427226 9.96283 0.370189 9.86963 0.335584 9.76737C0.300979 9.66512 0.289685 9.55632 0.302518 9.44914C0.127358 9.29744 0.0194332 9.08257 0.00237792 8.85148C-0.0146774 8.62039 0.0605233 8.392 0.211515 8.21623L8.33252 0.208169C8.51454 0.0578194 8.74791 -0.0158169 8.98326 0.00284674C9.21861 0.0215104 9.43747 0.130985 9.59352 0.308145C9.68216 0.382994 9.75511 0.474618 9.80816 0.577798C9.86121 0.680978 9.8933 0.793695 9.9026 0.909341C9.9119 1.02499 9.8982 1.1413 9.86232 1.25163C9.82643 1.36196 9.76906 1.46411 9.69351 1.55216L3.11651 8.03715H17.0395C17.2915 8.03715 17.5331 8.13731 17.7113 8.31547C17.8894 8.49363 17.9895 8.73527 17.9895 8.98722V8.99711C17.9893 9.24898 17.8891 9.49052 17.711 9.66862C17.5329 9.84672 17.2914 9.94692 17.0395 9.94718H3.04852L9.69751 16.5042C9.77046 16.5898 9.82578 16.689 9.86026 16.7961C9.89473 16.9031 9.9077 17.0159 9.8984 17.128C9.88911 17.2401 9.85774 17.3492 9.8061 17.4491C9.75447 17.5491 9.68358 17.6377 9.59752 17.7101C9.41221 17.8975 9.16104 18.0052 8.89752 18.0102C8.70389 18.0133 8.51691 17.9396 8.37751 17.8052Z" fill="#11293B"/>
</svg>
