<svg width="17" height="18" viewBox="0 0 17 18" fill="none" xmlns="http://www.w3.org/2000/svg">
<path d="M0.257767 16.078L4.44676 11.622C3.36583 10.3053 2.77647 8.65361 2.77974 6.95002C2.81104 5.55111 3.25447 4.19251 4.05449 3.0445C4.85451 1.8965 5.97553 1.01011 7.27708 0.496409C8.57864 -0.0172956 10.0029 -0.135471 11.3713 0.156687C12.7397 0.448845 13.9915 1.13835 14.9698 2.1388C15.9481 3.13925 16.6094 4.40615 16.8708 5.78077C17.1322 7.1554 16.9822 8.57662 16.4395 9.86634C15.8967 11.1561 14.9854 12.2569 13.8198 13.031C12.6542 13.8051 11.286 14.218 9.88677 14.218C8.42453 14.2202 6.9991 13.7596 5.81474 12.902L1.59377 17.391C1.51041 17.4805 1.40989 17.5523 1.29823 17.6022C1.18658 17.6522 1.06605 17.6791 0.943772 17.6815C0.82149 17.684 0.69996 17.6618 0.586411 17.6163C0.472862 17.5709 0.369603 17.5031 0.282761 17.417C0.10613 17.2404 0.00483055 17.0022 0.000168324 16.7525C-0.0044939 16.5028 0.0878505 16.2611 0.257767 16.078ZM9.88677 1.57801C8.81926 1.55417 7.76883 1.84888 6.86958 2.42463C5.97033 3.00038 5.26301 3.83105 4.83791 4.81056C4.4128 5.79006 4.28922 6.87401 4.48286 7.92408C4.67651 8.97415 5.17863 9.94269 5.92516 10.7061C6.67168 11.4696 7.62874 11.9933 8.67421 12.2104C9.71968 12.4275 10.8062 12.3282 11.7949 11.9252C12.7837 11.5221 13.63 10.8336 14.2257 9.94746C14.8215 9.06133 15.1397 8.0178 15.1398 6.95002C15.1526 5.54257 14.607 4.18738 13.6226 3.18141C12.6382 2.17543 11.2951 1.60069 9.88774 1.58302L9.88677 1.57801Z" fill="#677585"/>
</svg>
