<svg width="20" height="21" viewBox="0 0 20 21" fill="none" xmlns="http://www.w3.org/2000/svg">
<path d="M11.852 18.5131C11.8522 18.1935 11.9472 17.881 12.1249 17.6154C12.3026 17.3497 12.555 17.1428 12.8503 17.0206C13.1456 16.8985 13.4705 16.8666 13.7839 16.9291C14.0973 16.9915 14.3852 17.1457 14.6111 17.3717C14.837 17.5977 14.9908 17.8857 15.053 18.1991C15.1153 18.5125 15.0833 18.8375 14.9609 19.1327C14.8386 19.4279 14.6315 19.6803 14.3657 19.8578C14.1 20.0353 13.7876 20.13 13.468 20.13C13.0395 20.1292 12.6288 19.9585 12.3259 19.6554C12.023 19.3523 11.8525 18.9416 11.852 18.5131ZM5.38702 18.5131C5.38722 18.1935 5.48215 17.8812 5.65979 17.6156C5.83743 17.35 6.08983 17.1431 6.38507 17.0209C6.68032 16.8987 7.00516 16.8667 7.31854 16.9291C7.63192 16.9915 7.91975 17.1453 8.14569 17.3712C8.37163 17.5972 8.52551 17.8852 8.58789 18.1986C8.65028 18.512 8.6184 18.8367 8.49622 19.132C8.37403 19.4272 8.16702 19.6797 7.90143 19.8573C7.63583 20.0349 7.32356 20.1298 7.00403 20.13C6.57534 20.1295 6.16434 19.959 5.86121 19.6559C5.55807 19.3528 5.38755 18.9418 5.38702 18.5131ZM6.46503 14.7389C6.17938 14.7386 5.90551 14.6251 5.70343 14.4232C5.50135 14.2213 5.38755 13.9476 5.38702 13.662C5.38859 13.6239 5.39534 13.5863 5.40704 13.55C5.414 13.5281 5.41934 13.5057 5.42303 13.483L3.31702 5.03601H2.69403V4.87C2.53369 4.97441 2.34731 5.03193 2.15601 5.03601H1.078C0.7921 5.03601 0.517899 4.92238 0.315735 4.72021C0.113571 4.51805 0 4.24391 0 3.95801C0 3.6721 0.113571 3.39796 0.315735 3.1958C0.517899 2.99364 0.7921 2.88 1.078 2.88H2.15601C2.34728 2.8843 2.53359 2.9418 2.69403 3.04602V2.88H8.65704C8.63504 3.095 8.62402 3.31702 8.62402 3.54102V4.13C8.62411 4.43313 8.64546 4.73588 8.68799 5.03601H5.44299L6.51801 9.349H11.311C12.3963 10.127 13.6987 10.544 15.034 10.541H15.154L15.004 10.967H14.931C14.8489 11.1274 14.725 11.2625 14.5724 11.3583C14.4198 11.454 14.2441 11.5068 14.064 11.511H7.05603L7.32501 12.588H14.007C14.2929 12.588 14.5671 12.7015 14.7693 12.9037C14.9715 13.1059 15.085 13.3801 15.085 13.666C15.085 13.9519 14.9715 14.2262 14.7693 14.4283C14.5671 14.6305 14.2929 14.744 14.007 14.744L6.46503 14.7389ZM15.283 7.66101C15.0416 7.66075 14.8101 7.56462 14.6395 7.3938C14.4688 7.22298 14.373 6.99144 14.373 6.75V4.79102H12.403C12.1617 4.79102 11.9302 4.69507 11.7595 4.52441C11.5889 4.35376 11.493 4.12233 11.493 3.88098V3.79102C11.493 3.54967 11.5889 3.31824 11.7595 3.14758C11.9302 2.97692 12.1617 2.88098 12.403 2.88098H14.373V0.911011C14.373 0.669572 14.4688 0.438029 14.6395 0.267212C14.8101 0.096395 15.0416 0.000265026 15.283 0H15.373C15.4926 -7.22059e-08 15.611 0.0235416 15.7215 0.0693359C15.832 0.11513 15.9323 0.182238 16.0168 0.266846C16.1014 0.351453 16.1684 0.451978 16.2141 0.5625C16.2597 0.673022 16.2832 0.791424 16.283 0.911011V2.88098H18.243C18.3626 2.88085 18.481 2.90427 18.5914 2.94995C18.7019 2.99564 18.8023 3.06269 18.8868 3.14722C18.9713 3.23174 19.0384 3.33216 19.084 3.44263C19.1297 3.55309 19.1531 3.67148 19.153 3.79102V3.88098C19.153 4.12233 19.0571 4.35376 18.8865 4.52441C18.7158 4.69507 18.4844 4.79102 18.243 4.79102H16.283V6.75C16.2832 6.86959 16.2597 6.98799 16.2141 7.09851C16.1684 7.20903 16.1014 7.30956 16.0168 7.39417C15.9323 7.47877 15.832 7.54588 15.7215 7.59167C15.611 7.63747 15.4926 7.66101 15.373 7.66101H15.283Z" fill="#677585"/>
</svg>
