<svg width="18" height="18" viewBox="0 0 18 18" fill="none" xmlns="http://www.w3.org/2000/svg">
<path d="M8.39001 17.7101C8.30396 17.6377 8.23304 17.5491 8.1814 17.4491C8.12976 17.3492 8.09841 17.2401 8.08911 17.128C8.07982 17.0159 8.09272 16.9031 8.1272 16.7961C8.16167 16.689 8.21708 16.5898 8.29004 16.5042L14.9399 9.94718H0.949951C0.698077 9.94692 0.456667 9.84672 0.278564 9.66862C0.100462 9.49052 0.000264713 9.24911 0 8.99723V8.98722C0 8.73527 0.100039 8.49363 0.278198 8.31547C0.456358 8.13731 0.697996 8.03715 0.949951 8.03715H14.875L8.29797 1.55216C8.22242 1.46411 8.16504 1.36196 8.12915 1.25163C8.09326 1.1413 8.07957 1.02499 8.08887 0.909341C8.09816 0.793695 8.1303 0.680978 8.18335 0.577798C8.2364 0.474618 8.3093 0.382994 8.39795 0.308145C8.554 0.130985 8.77295 0.0215104 9.0083 0.00284674C9.24365 -0.0158169 9.47704 0.0578194 9.65906 0.208169L17.78 8.21623C17.931 8.392 18.0062 8.62039 17.9891 8.85148C17.9721 9.08257 17.8641 9.29744 17.689 9.44914C17.7019 9.55633 17.6906 9.6651 17.656 9.76737C17.6214 9.86964 17.5644 9.96287 17.489 10.0402L9.61499 17.8052C9.47393 17.9384 9.28595 18.0102 9.09204 18.0052C8.82854 18.0021 8.57663 17.8962 8.39001 17.7101Z" fill="#11293B"/>
</svg>
